<mxfile host="app.diagrams.net" modified="2020-11-17T09:59:08.888Z" agent="5.0 (Windows NT 10.0; Win64; x64) AppleWebKit/537.36 (KHTML, like Gecko) Chrome/86.0.4240.198 Safari/537.36" etag="fFFi4QkCKznvAOLB9OJu" version="13.9.9" type="github">
  <diagram id="9ntyrfn0GXn9pHeFvZ6M" name="Page-1">
    <mxGraphModel dx="1422" dy="794" grid="1" gridSize="10" guides="1" tooltips="1" connect="1" arrows="1" fold="1" page="1" pageScale="1" pageWidth="827" pageHeight="1169" math="0" shadow="0">
      <root>
        <mxCell id="0" />
        <mxCell id="1" parent="0" />
        <mxCell id="3REQTL-Von2pY2Shwjhd-5" value="InterractiveObjects" style="swimlane;fontStyle=1;align=center;verticalAlign=top;childLayout=stackLayout;horizontal=1;startSize=26;horizontalStack=0;resizeParent=1;resizeParentMax=0;resizeLast=0;collapsible=1;marginBottom=0;" vertex="1" parent="1">
          <mxGeometry x="330" y="50" width="160" height="150" as="geometry" />
        </mxCell>
        <mxCell id="3REQTL-Von2pY2Shwjhd-6" value="- name&#xa;- info" style="text;strokeColor=none;fillColor=none;align=left;verticalAlign=top;spacingLeft=4;spacingRight=4;overflow=hidden;rotatable=0;points=[[0,0.5],[1,0.5]];portConstraint=eastwest;" vertex="1" parent="3REQTL-Von2pY2Shwjhd-5">
          <mxGeometry y="26" width="160" height="54" as="geometry" />
        </mxCell>
        <mxCell id="3REQTL-Von2pY2Shwjhd-7" value="" style="line;strokeWidth=1;fillColor=none;align=left;verticalAlign=middle;spacingTop=-1;spacingLeft=3;spacingRight=3;rotatable=0;labelPosition=right;points=[];portConstraint=eastwest;" vertex="1" parent="3REQTL-Von2pY2Shwjhd-5">
          <mxGeometry y="80" width="160" height="8" as="geometry" />
        </mxCell>
        <mxCell id="3REQTL-Von2pY2Shwjhd-8" value="+ getName() void&#xa;+ getInfo() void" style="text;strokeColor=none;fillColor=none;align=left;verticalAlign=top;spacingLeft=4;spacingRight=4;overflow=hidden;rotatable=0;points=[[0,0.5],[1,0.5]];portConstraint=eastwest;" vertex="1" parent="3REQTL-Von2pY2Shwjhd-5">
          <mxGeometry y="88" width="160" height="62" as="geometry" />
        </mxCell>
        <mxCell id="3REQTL-Von2pY2Shwjhd-9" value="Item" style="swimlane;fontStyle=1;align=center;verticalAlign=top;childLayout=stackLayout;horizontal=1;startSize=20;horizontalStack=0;resizeParent=1;resizeParentMax=0;resizeLast=0;collapsible=1;marginBottom=0;" vertex="1" parent="1">
          <mxGeometry x="80" y="220" width="160" height="130" as="geometry" />
        </mxCell>
        <mxCell id="3REQTL-Von2pY2Shwjhd-11" value="" style="line;strokeWidth=1;fillColor=none;align=left;verticalAlign=middle;spacingTop=-1;spacingLeft=3;spacingRight=3;rotatable=0;labelPosition=right;points=[];portConstraint=eastwest;" vertex="1" parent="3REQTL-Von2pY2Shwjhd-9">
          <mxGeometry y="20" width="160" height="40" as="geometry" />
        </mxCell>
        <mxCell id="3REQTL-Von2pY2Shwjhd-12" value="+Item() super" style="text;strokeColor=none;fillColor=none;align=left;verticalAlign=top;spacingLeft=4;spacingRight=4;overflow=hidden;rotatable=0;points=[[0,0.5],[1,0.5]];portConstraint=eastwest;" vertex="1" parent="3REQTL-Von2pY2Shwjhd-9">
          <mxGeometry y="60" width="160" height="70" as="geometry" />
        </mxCell>
        <mxCell id="3REQTL-Von2pY2Shwjhd-13" value="Extends" style="endArrow=block;endSize=16;endFill=0;html=1;entryX=0;entryY=0.5;entryDx=0;entryDy=0;exitX=0.438;exitY=-0.008;exitDx=0;exitDy=0;exitPerimeter=0;" edge="1" parent="1" source="3REQTL-Von2pY2Shwjhd-9" target="3REQTL-Von2pY2Shwjhd-6">
          <mxGeometry width="160" relative="1" as="geometry">
            <mxPoint x="100" y="110" as="sourcePoint" />
            <mxPoint x="260" y="110" as="targetPoint" />
          </mxGeometry>
        </mxCell>
        <mxCell id="3REQTL-Von2pY2Shwjhd-19" style="edgeStyle=orthogonalEdgeStyle;rounded=0;orthogonalLoop=1;jettySize=auto;html=1;" edge="1" parent="1" source="3REQTL-Von2pY2Shwjhd-14">
          <mxGeometry relative="1" as="geometry">
            <mxPoint x="140" y="360" as="targetPoint" />
          </mxGeometry>
        </mxCell>
        <mxCell id="3REQTL-Von2pY2Shwjhd-14" value="Inventory" style="swimlane;fontStyle=1;align=center;verticalAlign=top;childLayout=stackLayout;horizontal=1;startSize=26;horizontalStack=0;resizeParent=1;resizeParentMax=0;resizeLast=0;collapsible=1;marginBottom=0;" vertex="1" parent="1">
          <mxGeometry x="70" y="430" width="180" height="130" as="geometry" />
        </mxCell>
        <mxCell id="3REQTL-Von2pY2Shwjhd-15" value="- &lt;Item&gt;" style="text;strokeColor=none;fillColor=none;align=left;verticalAlign=top;spacingLeft=4;spacingRight=4;overflow=hidden;rotatable=0;points=[[0,0.5],[1,0.5]];portConstraint=eastwest;" vertex="1" parent="3REQTL-Von2pY2Shwjhd-14">
          <mxGeometry y="26" width="180" height="26" as="geometry" />
        </mxCell>
        <mxCell id="3REQTL-Von2pY2Shwjhd-16" value="" style="line;strokeWidth=1;fillColor=none;align=left;verticalAlign=middle;spacingTop=-1;spacingLeft=3;spacingRight=3;rotatable=0;labelPosition=right;points=[];portConstraint=eastwest;" vertex="1" parent="3REQTL-Von2pY2Shwjhd-14">
          <mxGeometry y="52" width="180" height="8" as="geometry" />
        </mxCell>
        <mxCell id="3REQTL-Von2pY2Shwjhd-17" value="+getItems: &lt;&gt;&#xa;+ addToInventory: void&#xa;+ removeFromInventory: void&#xa;+ printInventory: void" style="text;strokeColor=none;fillColor=none;align=left;verticalAlign=top;spacingLeft=4;spacingRight=4;overflow=hidden;rotatable=0;points=[[0,0.5],[1,0.5]];portConstraint=eastwest;" vertex="1" parent="3REQTL-Von2pY2Shwjhd-14">
          <mxGeometry y="60" width="180" height="70" as="geometry" />
        </mxCell>
        <mxCell id="3REQTL-Von2pY2Shwjhd-20" value="Characters" style="swimlane;fontStyle=1;align=center;verticalAlign=top;childLayout=stackLayout;horizontal=1;startSize=26;horizontalStack=0;resizeParent=1;resizeParentMax=0;resizeLast=0;collapsible=1;marginBottom=0;" vertex="1" parent="1">
          <mxGeometry x="580" y="230" width="160" height="110" as="geometry" />
        </mxCell>
        <mxCell id="3REQTL-Von2pY2Shwjhd-22" value="" style="line;strokeWidth=1;fillColor=none;align=left;verticalAlign=middle;spacingTop=-1;spacingLeft=3;spacingRight=3;rotatable=0;labelPosition=right;points=[];portConstraint=eastwest;" vertex="1" parent="3REQTL-Von2pY2Shwjhd-20">
          <mxGeometry y="26" width="160" height="8" as="geometry" />
        </mxCell>
        <mxCell id="3REQTL-Von2pY2Shwjhd-23" value="+ Characters(): super" style="text;strokeColor=none;fillColor=none;align=left;verticalAlign=top;spacingLeft=4;spacingRight=4;overflow=hidden;rotatable=0;points=[[0,0.5],[1,0.5]];portConstraint=eastwest;" vertex="1" parent="3REQTL-Von2pY2Shwjhd-20">
          <mxGeometry y="34" width="160" height="76" as="geometry" />
        </mxCell>
        <mxCell id="3REQTL-Von2pY2Shwjhd-24" value="Extends" style="endArrow=block;endSize=16;endFill=0;html=1;exitX=0.325;exitY=-0.009;exitDx=0;exitDy=0;exitPerimeter=0;entryX=1;entryY=0.5;entryDx=0;entryDy=0;" edge="1" parent="1" source="3REQTL-Von2pY2Shwjhd-20" target="3REQTL-Von2pY2Shwjhd-6">
          <mxGeometry width="160" relative="1" as="geometry">
            <mxPoint x="590" y="160" as="sourcePoint" />
            <mxPoint x="750" y="160" as="targetPoint" />
          </mxGeometry>
        </mxCell>
        <mxCell id="3REQTL-Von2pY2Shwjhd-25" value="Game" style="swimlane;fontStyle=1;align=center;verticalAlign=top;childLayout=stackLayout;horizontal=1;startSize=26;horizontalStack=0;resizeParent=1;resizeParentMax=0;resizeLast=0;collapsible=1;marginBottom=0;" vertex="1" parent="1">
          <mxGeometry x="370" y="390" width="180" height="310" as="geometry" />
        </mxCell>
        <mxCell id="3REQTL-Von2pY2Shwjhd-26" value="- Parser&#xa;- Room&#xa;- Player" style="text;strokeColor=none;fillColor=none;align=left;verticalAlign=top;spacingLeft=4;spacingRight=4;overflow=hidden;rotatable=0;points=[[0,0.5],[1,0.5]];portConstraint=eastwest;" vertex="1" parent="3REQTL-Von2pY2Shwjhd-25">
          <mxGeometry y="26" width="180" height="54" as="geometry" />
        </mxCell>
        <mxCell id="3REQTL-Von2pY2Shwjhd-27" value="" style="line;strokeWidth=1;fillColor=none;align=left;verticalAlign=middle;spacingTop=-1;spacingLeft=3;spacingRight=3;rotatable=0;labelPosition=right;points=[];portConstraint=eastwest;" vertex="1" parent="3REQTL-Von2pY2Shwjhd-25">
          <mxGeometry y="80" width="180" height="8" as="geometry" />
        </mxCell>
        <mxCell id="3REQTL-Von2pY2Shwjhd-28" value="+ game()&#xa;+ seeCharacters() void&#xa;+ seeItems() void&#xa;+ seeInventory() void&#xa;- remove(): void&#xa;- pickup(): void&#xa;- createRooms(): void&#xa;- play(): void&#xa;- printWelcome(): void&#xa;- processCommand(): boolean&#xa;- printHelp(): void&#xa;- goRoom(): void&#xa;- quit(): boolean&#xa;" style="text;strokeColor=none;fillColor=none;align=left;verticalAlign=top;spacingLeft=4;spacingRight=4;overflow=hidden;rotatable=0;points=[[0,0.5],[1,0.5]];portConstraint=eastwest;" vertex="1" parent="3REQTL-Von2pY2Shwjhd-25">
          <mxGeometry y="88" width="180" height="222" as="geometry" />
        </mxCell>
      </root>
    </mxGraphModel>
  </diagram>
</mxfile>
